<svg xmlns="http://www.w3.org/2000/svg" viewBox="0 0 155.9 155.9" enable-background="new 0 0 155.9 155.9"><circle fill="#E25E54" cx="78" cy="78" r="77.8"/><path fill="#EFEFEF" d="M119.8 45.6c-1.7 0-3.1-1.6-3.1-3.6h-4.7c0 2-1.4 3.6-3.1 3.6s-3.1-1.6-3.1-3.6h-4.7c0 2-1.4 3.6-3.1 3.6-1.7 0-3.1-1.6-3.1-3.6h-4.7c0 7.9-5.6 14.3-12.4 14.3-6.8 0-12.4-6.4-12.4-14.3h-4.7c0 2-1.4 3.6-3.1 3.6-1.7 0-3.1-1.6-3.1-3.6h-4.5c0 2-1.4 3.6-3.1 3.6-1.7 0-3.1-1.6-3.1-3.6h-4.7c0 2-1.4 3.6-3.1 3.6-1.7 0-3.1-1.6-3.1-3.6h-4.7v96.1c13.5 11.1 30.8 17.8 49.6 17.8s36.1-6.7 49.6-17.8v-96.1h-4.7c.2 1.9-1.2 3.6-2.9 3.6z"/><path fill="#CDD0D2" d="M113.6 85.3h-71.3c-1.7 0-3.1 1.6-3.1 3.6v56.7l3.1 1.7v-56.5c0-1 .7-1.8 1.6-1.8h68.1c.9 0 1.6.8 1.6 1.8v56.5c1-.5 2.1-1.1 3.1-1.7v-56.7c0-2-1.4-3.6-3.1-3.6z"/><path fill="#334E5C" d="M57 103.3c1.2-.4 2.1-1.2 2.1-2.5 0-1.9-1.9-2.8-3.6-2.8-1.8 0-3.6.8-3.6 2.8 0 1.3.9 2.1 2.1 2.5-1.2.4-2.2 1.4-2.2 2.7 0 1.9 1.8 2.9 3.9 2.9 2 0 3.9-1 3.9-2.9-.4-1.3-1.4-2.3-2.6-2.7zm-3.5-2.2c0-.9.8-1.4 1.9-1.4s1.9.5 1.9 1.4c0 1-1.2 1.3-1.9 1.5-.6-.2-1.9-.6-1.9-1.5zm1.9 6.1c-1.2 0-2.1-.5-2.1-1.5 0-1.1 1.4-1.6 2.1-1.6.6.1 2.1.5 2.1 1.6 0 1-1 1.5-2.1 1.5zm8.7-9.2c-2.2 0-3.7 1.6-3.7 3.5 0 2.2 1.6 3.4 3.3 3.4 1.2 0 2.2-.8 2.7-1.5v.3c0 1.7-.9 3.5-2.6 3.5-.9 0-1.6-.3-2.1-.9l-.9 1.4c.7.7 1.6 1.2 2.9 1.2 2.9 0 4.4-2.4 4.4-5.4.2-3-1-5.5-4-5.5zm.2 5.4c-1.1 0-2.1-.5-2.1-1.9 0-.9.7-1.9 2-1.9 1.6 0 2.1 1.3 2.2 2.5-.4.8-1.3 1.3-2.1 1.3zm8.9-5.4c-2.2 0-3.7 1.6-3.7 3.5 0 2.2 1.6 3.4 3.3 3.4 1.2 0 2.2-.8 2.7-1.5v.3c0 1.7-.9 3.5-2.6 3.5-.9 0-1.6-.3-2.1-.9l-.9 1.4c.7.7 1.6 1.2 2.9 1.2 2.9 0 4.4-2.4 4.4-5.4.1-3-1.1-5.5-4-5.5zm.1 5.4c-1.1 0-2.1-.5-2.1-1.9 0-.9.7-1.9 2-1.9 1.6 0 2.1 1.3 2.2 2.5-.4.8-1.2 1.3-2.1 1.3zm8.9-5.4c-2.2 0-3.7 1.6-3.7 3.5 0 2.2 1.6 3.4 3.3 3.4 1.2 0 2.2-.8 2.7-1.5v.3c0 1.7-.9 3.5-2.6 3.5-.9 0-1.6-.3-2.1-.9l-.9 1.4c.7.7 1.6 1.2 2.9 1.2 2.9 0 4.4-2.4 4.4-5.4.1-3-1.1-5.5-4-5.5zm.1 5.4c-1.1 0-2.1-.5-2.1-1.9 0-.9.7-1.9 2-1.9 1.6 0 2.1 1.3 2.2 2.5-.4.8-1.2 1.3-2.1 1.3zm10.7-.1c1.2-.4 2.1-1.2 2.1-2.5 0-1.9-1.9-2.8-3.6-2.8-1.8 0-3.6.8-3.6 2.8 0 1.3.9 2.1 2.1 2.5-1.2.4-2.2 1.4-2.2 2.7 0 1.9 1.8 2.9 3.9 2.9 2 0 3.9-1 3.9-2.9-.4-1.3-1.4-2.3-2.6-2.7zm-3.5-2.2c0-.9.8-1.4 1.9-1.4s1.9.5 1.9 1.4c0 1-1.2 1.3-1.9 1.5-.6-.2-1.9-.6-1.9-1.5zm1.9 6.1c-1.2 0-2.1-.5-2.1-1.5 0-1.1 1.4-1.6 2.1-1.6.6.1 2 .5 2 1.6 0 1-.9 1.5-2 1.5zm8.8-9.2c-2.2 0-3.7 1.6-3.7 3.5 0 2.2 1.6 3.4 3.3 3.4 1.2 0 2.2-.8 2.7-1.5v.3c0 1.7-.9 3.5-2.6 3.5-.9 0-1.6-.3-2.1-.9l-.9 1.4c.7.7 1.6 1.2 2.9 1.2 2.9 0 4.4-2.4 4.4-5.4.1-3-1.1-5.5-4-5.5zm.1 5.4c-1.1 0-2.1-.5-2.1-1.9 0-.9.7-1.9 2-1.9 1.6 0 2.1 1.3 2.2 2.5-.4.8-1.3 1.3-2.1 1.3z"/><path fill="#EFC75E" d="M61.7 130.4l-2.8-.5-1.2-2.6c-.2-.2-.4-.4-.7-.4-.3 0-.5.2-.7.5l-1.2 2.6-2.8.5c-.3.1-.5.2-.6.5-.1.3 0 .6.2.8l2.1 2.1-.5 2.9c-.1.3.1.6.3.8.2.1.3.2.5.2s.2 0 .4-.1l2.5-1.4 2.5 1.4c.2.1.2.1.4.1s.3-.1.5-.2c.2-.2.4-.5.3-.8l-.6-2.9 2.1-2.2c.2-.2.3-.5.2-.8-.3-.2-.6-.4-.9-.5zm14 0l-2.8-.5-1.2-2.6c-.2-.2-.4-.4-.7-.4-.3 0-.5.2-.7.5l-1.3 2.6-2.8.5c-.3.1-.5.2-.6.5-.1.3 0 .6.2.8l2.1 2.1-.5 2.9c-.1.3.1.6.3.8.2.1.3.2.5.2s.2 0 .4-.1l2.5-1.4 2.5 1.4c.2.1.2.1.4.1s.3-.1.5-.2c.2-.2.4-.5.3-.8l-.6-2.9 2.1-2.2c.2-.2.3-.5.2-.8-.3-.2-.5-.4-.8-.5zm13.9 0l-2.8-.5-1.2-2.6c-.2-.2-.4-.4-.7-.4s-.5.2-.7.5l-1.2 2.6-2.8.5c-.3.1-.5.2-.6.5-.1.3 0 .6.2.8l2.1 2.1-.5 2.9c-.1.3.1.6.3.8.2.1.3.2.5.2s.2 0 .4-.1l2.5-1.4 2.5 1.4c.2.1.2.1.4.1s.3-.1.5-.2c.2-.2.4-.5.3-.8l-.6-2.9 2.1-2.2c.2-.2.3-.5.2-.8-.3-.2-.6-.4-.9-.5zm14.6.6c-.1-.3-.3-.5-.6-.5l-2.8-.5-1.2-2.6c-.2-.2-.4-.4-.7-.4-.3 0-.5.2-.7.5l-1.2 2.6-2.8.5c-.3.1-.5.2-.6.5s0 .6.2.8l2.1 2.1-.5 2.9c-.1.3.1.6.3.8.2.1.3.2.5.2s.2 0 .4-.1l2.5-1.4 2.5 1.4c.2.1.2.1.4.1s.3-.1.5-.2c.2-.2.4-.5.3-.8l-.6-2.9 2.1-2.2c0-.2.1-.5-.1-.8z"/><path fill="#CDD0D2" d="M73.3 67.8h-6.2c-.9 0-1.6.7-1.6 1.6s.7 1.6 1.6 1.6h6.2c.9 0 1.6-.7 1.6-1.6-.1-.9-.8-1.6-1.6-1.6zm15.5 0h-6.2c-.9 0-1.6.7-1.6 1.6s.7 1.6 1.6 1.6h6.2c.9 0 1.6-.7 1.6-1.6-.1-.9-.8-1.6-1.6-1.6zm15.5 0h-6.2c-.9 0-1.6.7-1.6 1.6s.7 1.6 1.6 1.6h6.2c.9 0 1.6-.7 1.6-1.6-.1-.9-.8-1.6-1.6-1.6zm15.5 0h-6.2c-.9 0-1.6.7-1.6 1.6s.7 1.6 1.6 1.6h6.2c.9 0 1.6-.7 1.6-1.6-.1-.9-.8-1.6-1.6-1.6zm-62 0h-6.2c-.9 0-1.6.7-1.6 1.6s.7 1.6 1.6 1.6h6.2c.9 0 1.6-.7 1.6-1.6-.1-.9-.8-1.6-1.6-1.6zm-15.5 0h-6.2c-.9 0-1.6.7-1.6 1.6s.7 1.6 1.6 1.6h6.2c.9 0 1.6-.7 1.6-1.6-.1-.9-.8-1.6-1.6-1.6z"/></svg>